<?xml version="1.0" encoding="utf-8"?>
<!-- Generator: Adobe Illustrator 18.0.0, SVG Export Plug-In . SVG Version: 6.00 Build 0)  -->
<!DOCTYPE svg PUBLIC "-//W3C//DTD SVG 1.1//EN" "http://www.w3.org/Graphics/SVG/1.1/DTD/svg11.dtd">
<svg version="1.1" id="batsman" xmlns="http://www.w3.org/2000/svg" xmlns:xlink="http://www.w3.org/1999/xlink" x="0px" y="0px"
	 viewBox="0 0 165 84" enable-background="new 0 0 165 84" xml:space="preserve">
<g>
	<path fill="#777777" fill-opacity="0.1" d="M31.8,13.4L62,40l30.2,17.8l30.2-6.4l30.2-18.5v32.6h-30.2H92.2H62H31.8V13.4z"/>
	<g>
		<g transform="translate(434,0)">
			<rect x="-403.2" y="13.4" fill="#4A494A" width="2.1" height="52.2"/>
			<ellipse fill="#4A494A" fill-opacity="0" cx="-402.2" cy="13.4" rx="3.1" ry="3.5"/>
		</g>
		<g transform="translate(463,0)">
			<rect x="-402" y="40" fill="#4A494A" width="2.1" height="25.6"/>
			<ellipse fill="#4A494A" fill-opacity="0" cx="-401" cy="40" rx="3.1" ry="3.5"/>
		</g>
		<g transform="translate(492,0)">
			<rect x="-400.9" y="57.8" fill="#4A494A" width="2.1" height="7.8"/>
			<ellipse fill="#4A494A" fill-opacity="0" cx="-399.8" cy="57.8" rx="3.1" ry="3.5"/>
		</g>
		<g transform="translate(521,0)">
			<rect x="-399.7" y="51.4" fill="#4A494A" width="2.1" height="14.2"/>
			<ellipse fill="#4A494A" fill-opacity="0" cx="-398.6" cy="51.4" rx="3.1" ry="3.5"/>
		</g>
		<g transform="translate(550,0)">
			<rect x="-398.5" y="32.9" fill="#4A494A" width="2.1" height="32.6"/>
			<ellipse fill="#4A494A" fill-opacity="0" cx="-397.4" cy="32.9" rx="3.1" ry="3.5"/>
		</g>
	</g>
	<line fill="none" stroke="#515251" x1="26.6" y1="65.5" x2="157.8" y2="65.5"/>
</g>
<line fill="none" stroke="#FFFFFF" x1="4" y1="46.9" x2="165.8" y2="46.9"/>
<line fill="none" stroke="#FFFFFF" x1="4" y1="30.2" x2="165.8" y2="30.2"/>
<line fill="none" stroke="#FFFFFF" x1="4" y1="13.5" x2="165.8" y2="13.5"/>
<text transform="matrix(1 0 0 1 48.8206 77.5954)" fill="#BDBDBD" font-family="'DS3DisplaySans'" font-size="11">ashes test matches</text>
<text transform="matrix(1 0 0 1 21.3672 12.1748)" fill="#BDBDBD" font-family="'DS3DisplaySans'" font-size="11">runs</text>
<text transform="matrix(1 0 0 1 10.2439 50.2079)" fill="#BDBDBD" font-family="'DS3DisplaySans'" font-size="11">100</text>
<text transform="matrix(1 0 0 1 8.2972 33.7667)" fill="#BDBDBD" font-family="'DS3DisplaySans'" font-size="11">200</text>
</svg>
