<?xml version="1.0" encoding="utf-8"?>
<!-- Generator: Adobe Illustrator 18.0.0, SVG Export Plug-In . SVG Version: 6.00 Build 0)  -->
<!DOCTYPE svg PUBLIC "-//W3C//DTD SVG 1.1//EN" "http://www.w3.org/Graphics/SVG/1.1/DTD/svg11.dtd">
<svg version="1.1" id="bowler" xmlns="http://www.w3.org/2000/svg" xmlns:xlink="http://www.w3.org/1999/xlink" x="0px" y="0px"
	 viewBox="0 0 165 84" enable-background="new 0 0 165 84" xml:space="preserve">
<g>
	<g>
		<g transform="translate(724.1379310344827,0)">
			<ellipse fill="#E1AD28" fill-opacity="0" cx="-715.3" cy="46.6" rx="3.1" ry="3.5"/>
		</g>
		<g transform="translate(753.1034482758621,0)">
			<ellipse fill="#E1AD28" fill-opacity="0" cx="-714.4" cy="44.5" rx="3.1" ry="3.5"/>
		</g>
		<g transform="translate(782.0689655172414,0)">
			<ellipse fill="#E1AD28" fill-opacity="0" cx="-713.4" cy="41" rx="3.1" ry="3.5"/>
		</g>
		<g transform="translate(811.0344827586207,0)">
			<ellipse fill="#E1AD28" fill-opacity="0" cx="-712.5" cy="45.7" rx="3.1" ry="3.5"/>
		</g>
		<g transform="translate(840,0)">
			<ellipse fill="#E1AD28" fill-opacity="0" cx="-711.5" cy="44.1" rx="3.1" ry="3.5"/>
		</g>
	</g>
	<path fill="#606160" fill-opacity="0.3" d="M8.8,46.6l29.9-2.1l28.8,3.1l31-2l29.9-1.5v20.8H98.6H68.7H38.7H8.8V46.6z"/>
	<line fill="none" stroke="#5B5C5C" stroke-opacity="0.25" x1="8.8" y1="56.8" x2="128.5" y2="56.8"/>
	<line fill="none" stroke="#5B5C5C" stroke-opacity="0.25" x1="8.8" y1="48.7" x2="128.5" y2="48.7"/>
	<line fill="none" stroke="#FFFFFF" stroke-opacity="0.25" x1="8.8" y1="40.6" x2="128.5" y2="40.6"/>
	<path fill="none" stroke="#686868" stroke-width="2" d="M8.8,46.6l29.9-2.1l28.8,3.1l31-2l29.9-1.5"/>
</g>
<path fill="none" stroke="#3F403F" d="M8.8,24.7l29.9,0.8l29.9,6.6l29.9,4.9l29.9-13.9"/>
<line fill="none" stroke="#3F403F" x1="3.7" y1="64.9" x2="133.6" y2="64.9"/>
<text transform="matrix(1 0 0 1 36.9615 76.8055)" fill="#BDBDBD" font-family="'DS3DisplaySans'" font-size="11">test matches</text>
<text transform="matrix(1 0 0 1 10.838 21.6683)" fill="#3F403F" font-family="'DS3DisplaySans'" font-size="11">match RPO</text>
<text transform="matrix(1 0 0 1 10.8377 41.9979)" fill="#686868" font-family="'DS3DisplaySans'" font-size="11">economy rate</text>
<g>
	<g>
		<line fill="none" stroke="#BDBDBD" stroke-miterlimit="10" x1="127.9" y1="28.4" x2="127.9" y2="33.4"/>
		<g>
			<polygon fill="#BDBDBD" points="124.5,32.4 128,38.5 131.5,32.4 			"/>
		</g>
	</g>
</g>
<g>
	<g>
		<line fill="none" stroke="#BDBDBD" stroke-miterlimit="10" x1="127.9" y1="19.4" x2="127.9" y2="14.4"/>
		<g>
			<polygon fill="#BDBDBD" points="131.5,15.4 128,9.4 124.5,15.4 			"/>
		</g>
	</g>
</g>
<text transform="matrix(1 0 0 1 132.7731 15.3321)" fill="#BDBCBC" font-family="'DS3DisplaySans'" font-size="11">bad</text>
<text transform="matrix(1 0 0 1 132.7734 38.3369)" fill="#BDBCBC" font-family="'DS3DisplaySans'" font-size="11">good</text>
<text transform="matrix(1 0 0 1 1.5701 48.971)" fill="#BDBCBC" font-family="'DS3DisplaySans'" font-size="11">2</text>
<text transform="matrix(1 0 0 1 2.5699 62.6937)" fill="#BDBCBC" font-family="'DS3DisplaySans'" font-size="11">1</text>
</svg>
