<?xml version="1.0" encoding="utf-8"?>
<!-- Generator: Adobe Illustrator 18.0.0, SVG Export Plug-In . SVG Version: 6.00 Build 0)  -->
<!DOCTYPE svg PUBLIC "-//W3C//DTD SVG 1.1//EN" "http://www.w3.org/Graphics/SVG/1.1/DTD/svg11.dtd">
<svg version="1.1" id="Layer_1" xmlns="http://www.w3.org/2000/svg" xmlns:xlink="http://www.w3.org/1999/xlink" x="0px" y="0px"
	 viewBox="0 0 165 84" enable-background="new 0 0 165 84" xml:space="preserve">
<text transform="matrix(1 0 0 1 116.7193 62.9843)" fill="#282828" font-family="'DS3DisplaySans'" font-size="11">WINNER</text>
<g transform="translate(10,20)">
	<g>
		<path fill="#282828" fill-opacity="0.3" d="M13.4,45l24.2-19.6V44H13.4V45z"/>
		<line fill="none" stroke="#282828" stroke-width="2" x1="13.4" y1="45" x2="37.6" y2="25.4"/>
		<circle fill="#E1AD28" cx="37.6" cy="25.4" r="0"/>
	</g>
	<g>
		<path fill="#737373" fill-opacity="0.3" d="M37.6,45l13.1-9v9H37.6L37.6,45z"/>
		<line fill="none" stroke="#737373" stroke-width="2" x1="37.6" y1="45" x2="50.7" y2="36"/>
		<circle fill="#4E69B2" cx="50.7" cy="36" r="0"/>
	</g>
	<g>
		<path fill="#282828" fill-opacity="0.3" d="M50.6,25.4L74-1.2V44H50.6V25.4z"/>
		<line fill="none" stroke="#282828" stroke-width="2" x1="50.6" y1="25.4" x2="74" y2="-1.2"/>
		<line fill="none" stroke="#333333" stroke-opacity="0.25" x1="37.6" y1="25.4" x2="50.6" y2="25.4"/>
		<circle fill="#282828" cx="74" cy="-1.2" r="3"/>
	</g>
	<g>
		<path fill="#737373" fill-opacity="0.3" d="M74,36l20.2-11.9V44H74V36z"/>
		<line fill="none" stroke="#737373" stroke-width="2" x1="74" y1="36" x2="94.2" y2="24.1"/>
		<line fill="none" stroke="#333333" stroke-opacity="0.25" x1="50.7" y1="36" x2="74" y2="36"/>
		<circle fill="#737373" cx="94.2" cy="24.1" r="2"/>
	</g>
</g>
<line fill="none" stroke="#616161" stroke-miterlimit="10" x1="11.6" y1="65" x2="158.2" y2="65"/>
<text transform="matrix(1 0 0 1 11.3672 77.1701)" fill="#BDBDBD" font-family="'DS3DisplaySans'" font-size="12">innings</text>
<text transform="matrix(1 0 0 1 15.3672 26.1748)" fill="#BDBDBD" font-family="'DS3DisplaySans'" font-size="12">runs</text>
<g>
	<g>
		<line fill="none" stroke="#BDBDBD" stroke-miterlimit="10" x1="55.4" y1="73.9" x2="80.4" y2="73.9"/>
		<g>
			<polygon fill="#BDBDBD" points="79.4,77.8 85.4,74.3 79.4,70.8 			"/>
		</g>
	</g>
</g>
<g>
	<g>
		<line fill="none" stroke="#BDBDBD" stroke-miterlimit="10" x1="11.9" y1="39.4" x2="11.9" y2="14.4"/>
		<g>
			<polygon fill="#BDBDBD" points="15.5,15.4 12,9.4 8.5,15.4 			"/>
		</g>
	</g>
</g>
</svg>
